<mxfile host="65bd71144e" modified="2022-07-23T08:00:23.157Z" agent="5.0 (Windows NT 10.0; Win64; x64) AppleWebKit/537.36 (KHTML, like Gecko) Code/1.69.2 Chrome/100.0.4896.160 Electron/18.3.5 Safari/537.36" etag="b4MtPY0vknDuan8QA6sN" version="20.1.4" type="embed" pages="4">
    <diagram id="1mh1oz5okx6sD4sjDq27" name="Page-1">
        <mxGraphModel dx="680" dy="372" grid="1" gridSize="10" guides="1" tooltips="1" connect="1" arrows="1" fold="1" page="1" pageScale="1" pageWidth="827" pageHeight="1169" math="0" shadow="0">
            <root>
                <mxCell id="0"/>
                <mxCell id="1" parent="0"/>
                <mxCell id="8" value="" style="rounded=0;whiteSpace=wrap;html=1;" parent="1" vertex="1">
                    <mxGeometry x="310" y="340" width="120" height="60" as="geometry"/>
                </mxCell>
                <mxCell id="9" style="edgeStyle=elbowEdgeStyle;html=1;exitX=0.5;exitY=1;exitDx=0;exitDy=0;entryX=0.5;entryY=0;entryDx=0;entryDy=0;endArrow=none;endFill=0;elbow=vertical;rounded=0;" parent="1" source="2" target="3" edge="1">
                    <mxGeometry relative="1" as="geometry"/>
                </mxCell>
                <mxCell id="10" style="edgeStyle=elbowEdgeStyle;rounded=0;elbow=vertical;html=1;exitX=0.5;exitY=1;exitDx=0;exitDy=0;entryX=0.5;entryY=0;entryDx=0;entryDy=0;endArrow=none;endFill=0;" parent="1" source="2" target="4" edge="1">
                    <mxGeometry relative="1" as="geometry"/>
                </mxCell>
                <mxCell id="2" value="root" style="rounded=0;whiteSpace=wrap;html=1;" parent="1" vertex="1">
                    <mxGeometry x="280" y="80" width="120" height="60" as="geometry"/>
                </mxCell>
                <mxCell id="11" style="edgeStyle=elbowEdgeStyle;rounded=0;elbow=vertical;html=1;entryX=0.5;entryY=0;entryDx=0;entryDy=0;endArrow=none;endFill=0;" parent="1" target="5" edge="1">
                    <mxGeometry relative="1" as="geometry">
                        <mxPoint x="260" y="260" as="sourcePoint"/>
                    </mxGeometry>
                </mxCell>
                <mxCell id="3" value="子SEG" style="rounded=0;whiteSpace=wrap;html=1;" parent="1" vertex="1">
                    <mxGeometry x="200" y="200" width="120" height="60" as="geometry"/>
                </mxCell>
                <mxCell id="4" value="子SEG" style="rounded=0;whiteSpace=wrap;html=1;" parent="1" vertex="1">
                    <mxGeometry x="360" y="200" width="120" height="60" as="geometry"/>
                </mxCell>
                <mxCell id="5" value="孫SEG" style="rounded=0;whiteSpace=wrap;html=1;" parent="1" vertex="1">
                    <mxGeometry x="120" y="320" width="120" height="60" as="geometry"/>
                </mxCell>
                <mxCell id="6" value="" style="rounded=0;whiteSpace=wrap;html=1;" parent="1" vertex="1">
                    <mxGeometry x="294" y="330" width="120" height="60" as="geometry"/>
                </mxCell>
                <mxCell id="12" style="edgeStyle=elbowEdgeStyle;rounded=0;elbow=vertical;html=1;exitX=0.5;exitY=0;exitDx=0;exitDy=0;endArrow=none;endFill=0;" parent="1" source="7" edge="1">
                    <mxGeometry relative="1" as="geometry">
                        <mxPoint x="260" y="260" as="targetPoint"/>
                    </mxGeometry>
                </mxCell>
                <mxCell id="7" value="孫SEG" style="rounded=0;whiteSpace=wrap;html=1;" parent="1" vertex="1">
                    <mxGeometry x="280" y="320" width="120" height="60" as="geometry"/>
                </mxCell>
            </root>
        </mxGraphModel>
    </diagram>
    <diagram id="AjfAJL3JwfQ_afSrFSOD" name="Page-2">
        <mxGraphModel dx="680" dy="466" grid="1" gridSize="10" guides="1" tooltips="1" connect="1" arrows="1" fold="1" page="1" pageScale="1" pageWidth="827" pageHeight="1169" math="0" shadow="0">
            <root>
                <mxCell id="0"/>
                <mxCell id="1" parent="0"/>
                <mxCell id="Ej1WJ-270VBgHgSkNbeY-1" value="" style="rounded=0;whiteSpace=wrap;html=1;fillColor=#6d8764;fontColor=#ffffff;strokeColor=#3A5431;" vertex="1" parent="1">
                    <mxGeometry x="610" y="310" width="120" height="60" as="geometry"/>
                </mxCell>
                <mxCell id="Ej1WJ-270VBgHgSkNbeY-2" style="edgeStyle=elbowEdgeStyle;html=1;exitX=0.5;exitY=1;exitDx=0;exitDy=0;entryX=0.5;entryY=0;entryDx=0;entryDy=0;endArrow=none;endFill=0;elbow=vertical;rounded=0;" edge="1" source="Ej1WJ-270VBgHgSkNbeY-4" target="Ej1WJ-270VBgHgSkNbeY-6" parent="1">
                    <mxGeometry relative="1" as="geometry"/>
                </mxCell>
                <mxCell id="Ej1WJ-270VBgHgSkNbeY-3" style="edgeStyle=elbowEdgeStyle;rounded=0;elbow=vertical;html=1;exitX=0.5;exitY=1;exitDx=0;exitDy=0;entryX=0.5;entryY=0;entryDx=0;entryDy=0;endArrow=none;endFill=0;" edge="1" source="Ej1WJ-270VBgHgSkNbeY-4" target="Ej1WJ-270VBgHgSkNbeY-7" parent="1">
                    <mxGeometry relative="1" as="geometry"/>
                </mxCell>
                <mxCell id="Ej1WJ-270VBgHgSkNbeY-4" value="root" style="rounded=0;whiteSpace=wrap;html=1;fillColor=#d80073;fontColor=#ffffff;strokeColor=#A50040;" vertex="1" parent="1">
                    <mxGeometry x="580" y="50" width="120" height="60" as="geometry"/>
                </mxCell>
                <mxCell id="Ej1WJ-270VBgHgSkNbeY-5" style="edgeStyle=elbowEdgeStyle;rounded=0;elbow=vertical;html=1;entryX=0.5;entryY=0;entryDx=0;entryDy=0;endArrow=none;endFill=0;" edge="1" target="Ej1WJ-270VBgHgSkNbeY-8" parent="1">
                    <mxGeometry relative="1" as="geometry">
                        <mxPoint x="560" y="230" as="sourcePoint"/>
                    </mxGeometry>
                </mxCell>
                <mxCell id="Ej1WJ-270VBgHgSkNbeY-6" value="子SEG" style="rounded=0;whiteSpace=wrap;html=1;fillColor=#008a00;fontColor=#ffffff;strokeColor=#005700;" vertex="1" parent="1">
                    <mxGeometry x="500" y="170" width="120" height="60" as="geometry"/>
                </mxCell>
                <mxCell id="Ej1WJ-270VBgHgSkNbeY-7" value="子SEG" style="rounded=0;whiteSpace=wrap;html=1;fillColor=#0050ef;fontColor=#ffffff;strokeColor=#001DBC;" vertex="1" parent="1">
                    <mxGeometry x="660" y="170" width="120" height="60" as="geometry"/>
                </mxCell>
                <mxCell id="Ej1WJ-270VBgHgSkNbeY-8" value="孫SEG" style="rounded=0;whiteSpace=wrap;html=1;fillColor=#60a917;fontColor=#ffffff;strokeColor=#2D7600;" vertex="1" parent="1">
                    <mxGeometry x="420" y="290" width="120" height="60" as="geometry"/>
                </mxCell>
                <mxCell id="Ej1WJ-270VBgHgSkNbeY-9" value="" style="rounded=0;whiteSpace=wrap;html=1;fillColor=#6d8764;fontColor=#ffffff;strokeColor=#3A5431;" vertex="1" parent="1">
                    <mxGeometry x="594" y="300" width="120" height="60" as="geometry"/>
                </mxCell>
                <mxCell id="Ej1WJ-270VBgHgSkNbeY-10" style="edgeStyle=elbowEdgeStyle;rounded=0;elbow=vertical;html=1;exitX=0.5;exitY=0;exitDx=0;exitDy=0;endArrow=none;endFill=0;" edge="1" source="Ej1WJ-270VBgHgSkNbeY-11" parent="1">
                    <mxGeometry relative="1" as="geometry">
                        <mxPoint x="560" y="230" as="targetPoint"/>
                    </mxGeometry>
                </mxCell>
                <mxCell id="Ej1WJ-270VBgHgSkNbeY-11" value="孫SEG" style="rounded=0;whiteSpace=wrap;html=1;fillColor=#6d8764;fontColor=#ffffff;strokeColor=#3A5431;" vertex="1" parent="1">
                    <mxGeometry x="580" y="290" width="120" height="60" as="geometry"/>
                </mxCell>
                <mxCell id="Ej1WJ-270VBgHgSkNbeY-12" value="" style="swimlane;startSize=0;" vertex="1" parent="1">
                    <mxGeometry x="400" y="30" width="400" height="410" as="geometry"/>
                </mxCell>
                <mxCell id="Ej1WJ-270VBgHgSkNbeY-13" value="regacy_db" style="text;html=1;strokeColor=none;fillColor=none;align=center;verticalAlign=middle;whiteSpace=wrap;rounded=0;" vertex="1" parent="1">
                    <mxGeometry x="400" width="60" height="30" as="geometry"/>
                </mxCell>
                <mxCell id="Ej1WJ-270VBgHgSkNbeY-14" value="" style="swimlane;startSize=0;" vertex="1" parent="1">
                    <mxGeometry x="10" y="30" width="380" height="410" as="geometry"/>
                </mxCell>
                <mxCell id="Ej1WJ-270VBgHgSkNbeY-27" style="edgeStyle=orthogonalEdgeStyle;rounded=0;html=1;exitX=0.25;exitY=1;exitDx=0;exitDy=0;entryX=0;entryY=0.5;entryDx=0;entryDy=0;endArrow=none;endFill=0;" edge="1" parent="Ej1WJ-270VBgHgSkNbeY-14" source="Ej1WJ-270VBgHgSkNbeY-16" target="Ej1WJ-270VBgHgSkNbeY-17">
                    <mxGeometry relative="1" as="geometry"/>
                </mxCell>
                <mxCell id="Ej1WJ-270VBgHgSkNbeY-28" style="edgeStyle=orthogonalEdgeStyle;rounded=0;html=1;exitX=0.25;exitY=1;exitDx=0;exitDy=0;entryX=0;entryY=0.5;entryDx=0;entryDy=0;endArrow=none;endFill=0;" edge="1" parent="Ej1WJ-270VBgHgSkNbeY-14" source="Ej1WJ-270VBgHgSkNbeY-16" target="Ej1WJ-270VBgHgSkNbeY-18">
                    <mxGeometry relative="1" as="geometry"/>
                </mxCell>
                <mxCell id="Ej1WJ-270VBgHgSkNbeY-16" value="root_doc" style="rounded=0;whiteSpace=wrap;html=1;fillColor=#d80073;fontColor=#ffffff;strokeColor=#A50040;" vertex="1" parent="Ej1WJ-270VBgHgSkNbeY-14">
                    <mxGeometry x="40" y="20" width="120" height="60" as="geometry"/>
                </mxCell>
                <mxCell id="Ej1WJ-270VBgHgSkNbeY-24" style="edgeStyle=orthogonalEdgeStyle;html=1;exitX=0.25;exitY=1;exitDx=0;exitDy=0;entryX=0;entryY=0.5;entryDx=0;entryDy=0;rounded=0;endArrow=none;endFill=0;" edge="1" parent="Ej1WJ-270VBgHgSkNbeY-14" source="Ej1WJ-270VBgHgSkNbeY-17" target="Ej1WJ-270VBgHgSkNbeY-19">
                    <mxGeometry relative="1" as="geometry"/>
                </mxCell>
                <mxCell id="Ej1WJ-270VBgHgSkNbeY-25" style="edgeStyle=orthogonalEdgeStyle;rounded=0;html=1;exitX=0.25;exitY=1;exitDx=0;exitDy=0;entryX=0;entryY=0.5;entryDx=0;entryDy=0;endArrow=none;endFill=0;" edge="1" parent="Ej1WJ-270VBgHgSkNbeY-14" source="Ej1WJ-270VBgHgSkNbeY-17" target="Ej1WJ-270VBgHgSkNbeY-20">
                    <mxGeometry relative="1" as="geometry"/>
                </mxCell>
                <mxCell id="Ej1WJ-270VBgHgSkNbeY-17" value="子SEG_doc" style="rounded=0;whiteSpace=wrap;html=1;fillColor=#008a00;fontColor=#ffffff;strokeColor=#005700;" vertex="1" parent="Ej1WJ-270VBgHgSkNbeY-14">
                    <mxGeometry x="90" y="90" width="120" height="60" as="geometry"/>
                </mxCell>
                <mxCell id="Ej1WJ-270VBgHgSkNbeY-18" value="子SEG_doc" style="rounded=0;whiteSpace=wrap;html=1;fillColor=#0050ef;fontColor=#ffffff;strokeColor=#001DBC;" vertex="1" parent="Ej1WJ-270VBgHgSkNbeY-14">
                    <mxGeometry x="90" y="330" width="120" height="60" as="geometry"/>
                </mxCell>
                <mxCell id="Ej1WJ-270VBgHgSkNbeY-19" value="孫SEG_dco" style="rounded=0;whiteSpace=wrap;html=1;fillColor=#60a917;fontColor=#ffffff;strokeColor=#2D7600;" vertex="1" parent="Ej1WJ-270VBgHgSkNbeY-14">
                    <mxGeometry x="150" y="160" width="120" height="60" as="geometry"/>
                </mxCell>
                <mxCell id="Ej1WJ-270VBgHgSkNbeY-20" value="孫SEG" style="rounded=0;whiteSpace=wrap;html=1;fillColor=#6d8764;fontColor=#ffffff;strokeColor=#3A5431;" vertex="1" parent="Ej1WJ-270VBgHgSkNbeY-14">
                    <mxGeometry x="150" y="230" width="120" height="60" as="geometry"/>
                </mxCell>
                <mxCell id="Ej1WJ-270VBgHgSkNbeY-21" value="" style="rounded=0;whiteSpace=wrap;html=1;fillColor=#6d8764;fontColor=#ffffff;strokeColor=#3A5431;" vertex="1" parent="Ej1WJ-270VBgHgSkNbeY-14">
                    <mxGeometry x="164" y="240" width="120" height="60" as="geometry"/>
                </mxCell>
                <mxCell id="Ej1WJ-270VBgHgSkNbeY-22" value="孫SEG_doc" style="rounded=0;whiteSpace=wrap;html=1;fillColor=#6d8764;fontColor=#ffffff;strokeColor=#3A5431;" vertex="1" parent="Ej1WJ-270VBgHgSkNbeY-14">
                    <mxGeometry x="180" y="250" width="120" height="60" as="geometry"/>
                </mxCell>
                <mxCell id="Ej1WJ-270VBgHgSkNbeY-34" style="edgeStyle=orthogonalEdgeStyle;curved=1;html=1;exitX=1;exitY=0.5;exitDx=0;exitDy=0;entryX=0;entryY=0.5;entryDx=0;entryDy=0;dashed=1;startArrow=classic;startFill=1;endArrow=classic;endFill=1;strokeWidth=3;" edge="1" parent="1" source="Ej1WJ-270VBgHgSkNbeY-15" target="Ej1WJ-270VBgHgSkNbeY-13">
                    <mxGeometry relative="1" as="geometry"/>
                </mxCell>
                <mxCell id="Ej1WJ-270VBgHgSkNbeY-15" value="collection" style="text;html=1;strokeColor=none;fillColor=none;align=center;verticalAlign=middle;whiteSpace=wrap;rounded=0;" vertex="1" parent="1">
                    <mxGeometry x="10" width="60" height="30" as="geometry"/>
                </mxCell>
                <mxCell id="Ej1WJ-270VBgHgSkNbeY-29" style="edgeStyle=orthogonalEdgeStyle;html=1;exitX=1;exitY=0.5;exitDx=0;exitDy=0;entryX=0.838;entryY=1.007;entryDx=0;entryDy=0;entryPerimeter=0;endArrow=classic;endFill=1;curved=1;dashed=1;startArrow=classic;startFill=1;strokeWidth=3;fillColor=#0050ef;strokeColor=#001DBC;" edge="1" parent="1" source="Ej1WJ-270VBgHgSkNbeY-18" target="Ej1WJ-270VBgHgSkNbeY-7">
                    <mxGeometry relative="1" as="geometry">
                        <Array as="points">
                            <mxPoint x="220" y="410"/>
                            <mxPoint x="770" y="410"/>
                            <mxPoint x="770" y="230"/>
                        </Array>
                    </mxGeometry>
                </mxCell>
                <mxCell id="Ej1WJ-270VBgHgSkNbeY-30" style="edgeStyle=orthogonalEdgeStyle;curved=1;html=1;exitX=0.5;exitY=1;exitDx=0;exitDy=0;entryX=0.5;entryY=1;entryDx=0;entryDy=0;dashed=1;startArrow=classic;startFill=1;endArrow=classic;endFill=1;strokeWidth=3;fillColor=#6d8764;strokeColor=#3A5431;" edge="1" parent="1" source="Ej1WJ-270VBgHgSkNbeY-22" target="Ej1WJ-270VBgHgSkNbeY-1">
                    <mxGeometry relative="1" as="geometry"/>
                </mxCell>
                <mxCell id="Ej1WJ-270VBgHgSkNbeY-31" style="edgeStyle=orthogonalEdgeStyle;curved=1;html=1;exitX=1;exitY=0.5;exitDx=0;exitDy=0;entryX=0;entryY=0.5;entryDx=0;entryDy=0;dashed=1;startArrow=classic;startFill=1;endArrow=classic;endFill=1;strokeWidth=3;fillColor=#60a917;strokeColor=#2D7600;" edge="1" parent="1" source="Ej1WJ-270VBgHgSkNbeY-19" target="Ej1WJ-270VBgHgSkNbeY-8">
                    <mxGeometry relative="1" as="geometry"/>
                </mxCell>
                <mxCell id="Ej1WJ-270VBgHgSkNbeY-32" style="edgeStyle=orthogonalEdgeStyle;curved=1;html=1;exitX=1;exitY=0.5;exitDx=0;exitDy=0;entryX=0;entryY=0.5;entryDx=0;entryDy=0;dashed=1;startArrow=classic;startFill=1;endArrow=classic;endFill=1;strokeWidth=3;fillColor=#008a00;strokeColor=#005700;" edge="1" parent="1" source="Ej1WJ-270VBgHgSkNbeY-17" target="Ej1WJ-270VBgHgSkNbeY-6">
                    <mxGeometry relative="1" as="geometry"/>
                </mxCell>
                <mxCell id="Ej1WJ-270VBgHgSkNbeY-33" style="edgeStyle=orthogonalEdgeStyle;curved=1;html=1;exitX=1;exitY=0.5;exitDx=0;exitDy=0;entryX=0;entryY=0.5;entryDx=0;entryDy=0;dashed=1;startArrow=classic;startFill=1;endArrow=classic;endFill=1;strokeWidth=3;fillColor=#d80073;strokeColor=#A50040;" edge="1" parent="1" source="Ej1WJ-270VBgHgSkNbeY-16" target="Ej1WJ-270VBgHgSkNbeY-4">
                    <mxGeometry relative="1" as="geometry"/>
                </mxCell>
            </root>
        </mxGraphModel>
    </diagram>
    <diagram id="jvPqVTLo-BdDaDhVrAVR" name="Page-3">
        <mxGraphModel dx="680" dy="318" grid="1" gridSize="10" guides="1" tooltips="1" connect="1" arrows="1" fold="1" page="1" pageScale="1" pageWidth="827" pageHeight="1169" math="0" shadow="0">
            <root>
                <mxCell id="0"/>
                <mxCell id="1" parent="0"/>
                <mxCell id="RuM5QxJpjIQEG4IXcK9o-27" style="edgeStyle=orthogonalEdgeStyle;curved=1;html=1;exitX=0.5;exitY=1;exitDx=0;exitDy=0;entryX=0.5;entryY=1;entryDx=0;entryDy=0;entryPerimeter=0;dashed=1;startArrow=classic;startFill=1;endArrow=classic;endFill=1;strokeWidth=3;fillColor=#6d8764;strokeColor=#3A5431;" edge="1" parent="1" source="RuM5QxJpjIQEG4IXcK9o-1" target="RuM5QxJpjIQEG4IXcK9o-19">
                    <mxGeometry relative="1" as="geometry">
                        <Array as="points">
                            <mxPoint x="280" y="410"/>
                            <mxPoint x="645" y="410"/>
                        </Array>
                    </mxGeometry>
                </mxCell>
                <mxCell id="RuM5QxJpjIQEG4IXcK9o-1" value="" style="rounded=0;whiteSpace=wrap;html=1;fillColor=#6d8764;fontColor=#ffffff;strokeColor=#3A5431;" vertex="1" parent="1">
                    <mxGeometry x="220" y="320" width="120" height="60" as="geometry"/>
                </mxCell>
                <mxCell id="RuM5QxJpjIQEG4IXcK9o-2" style="edgeStyle=elbowEdgeStyle;html=1;exitX=0.5;exitY=1;exitDx=0;exitDy=0;entryX=0.5;entryY=0;entryDx=0;entryDy=0;endArrow=none;endFill=0;elbow=vertical;rounded=0;" edge="1" source="RuM5QxJpjIQEG4IXcK9o-4" target="RuM5QxJpjIQEG4IXcK9o-6" parent="1">
                    <mxGeometry relative="1" as="geometry"/>
                </mxCell>
                <mxCell id="RuM5QxJpjIQEG4IXcK9o-3" style="edgeStyle=elbowEdgeStyle;rounded=0;elbow=vertical;html=1;exitX=0.5;exitY=1;exitDx=0;exitDy=0;entryX=0.5;entryY=0;entryDx=0;entryDy=0;endArrow=none;endFill=0;" edge="1" source="RuM5QxJpjIQEG4IXcK9o-4" target="RuM5QxJpjIQEG4IXcK9o-7" parent="1">
                    <mxGeometry relative="1" as="geometry"/>
                </mxCell>
                <mxCell id="RuM5QxJpjIQEG4IXcK9o-30" style="edgeStyle=orthogonalEdgeStyle;curved=1;html=1;exitX=1;exitY=0.5;exitDx=0;exitDy=0;entryX=0;entryY=0.5;entryDx=0;entryDy=0;entryPerimeter=0;dashed=1;startArrow=classic;startFill=1;endArrow=classic;endFill=1;strokeWidth=3;fillColor=#d80073;strokeColor=#A50040;" edge="1" parent="1" source="RuM5QxJpjIQEG4IXcK9o-4" target="RuM5QxJpjIQEG4IXcK9o-15">
                    <mxGeometry relative="1" as="geometry"/>
                </mxCell>
                <mxCell id="RuM5QxJpjIQEG4IXcK9o-4" value="root" style="rounded=0;whiteSpace=wrap;html=1;fillColor=#d80073;fontColor=#ffffff;strokeColor=#A50040;" vertex="1" parent="1">
                    <mxGeometry x="190" y="60" width="120" height="60" as="geometry"/>
                </mxCell>
                <mxCell id="RuM5QxJpjIQEG4IXcK9o-5" style="edgeStyle=elbowEdgeStyle;rounded=0;elbow=vertical;html=1;entryX=0.5;entryY=0;entryDx=0;entryDy=0;endArrow=none;endFill=0;" edge="1" target="RuM5QxJpjIQEG4IXcK9o-8" parent="1">
                    <mxGeometry relative="1" as="geometry">
                        <mxPoint x="170" y="240" as="sourcePoint"/>
                    </mxGeometry>
                </mxCell>
                <mxCell id="RuM5QxJpjIQEG4IXcK9o-28" style="edgeStyle=orthogonalEdgeStyle;curved=1;html=1;exitX=0.75;exitY=1;exitDx=0;exitDy=0;entryX=0.215;entryY=0.983;entryDx=0;entryDy=0;entryPerimeter=0;dashed=1;startArrow=classic;startFill=1;endArrow=classic;endFill=1;strokeWidth=3;fillColor=#008a00;strokeColor=#005700;" edge="1" parent="1" source="RuM5QxJpjIQEG4IXcK9o-6" target="RuM5QxJpjIQEG4IXcK9o-16">
                    <mxGeometry relative="1" as="geometry">
                        <Array as="points">
                            <mxPoint x="200" y="270"/>
                            <mxPoint x="533" y="270"/>
                        </Array>
                    </mxGeometry>
                </mxCell>
                <mxCell id="RuM5QxJpjIQEG4IXcK9o-6" value="子SEG" style="rounded=0;whiteSpace=wrap;html=1;fillColor=#008a00;fontColor=#ffffff;strokeColor=#005700;" vertex="1" parent="1">
                    <mxGeometry x="110" y="180" width="120" height="60" as="geometry"/>
                </mxCell>
                <mxCell id="RuM5QxJpjIQEG4IXcK9o-29" style="edgeStyle=orthogonalEdgeStyle;curved=1;html=1;exitX=0.5;exitY=1;exitDx=0;exitDy=0;entryX=0.145;entryY=1;entryDx=0;entryDy=-4.35;entryPerimeter=0;dashed=1;startArrow=classic;startFill=1;endArrow=classic;endFill=1;strokeWidth=3;fillColor=#0050ef;strokeColor=#001DBC;" edge="1" parent="1" source="RuM5QxJpjIQEG4IXcK9o-7" target="RuM5QxJpjIQEG4IXcK9o-17">
                    <mxGeometry relative="1" as="geometry">
                        <Array as="points">
                            <mxPoint x="330" y="260"/>
                            <mxPoint x="686" y="260"/>
                        </Array>
                    </mxGeometry>
                </mxCell>
                <mxCell id="RuM5QxJpjIQEG4IXcK9o-7" value="子SEG" style="rounded=0;whiteSpace=wrap;html=1;fillColor=#0050ef;fontColor=#ffffff;strokeColor=#001DBC;" vertex="1" parent="1">
                    <mxGeometry x="270" y="180" width="120" height="60" as="geometry"/>
                </mxCell>
                <mxCell id="RuM5QxJpjIQEG4IXcK9o-26" style="edgeStyle=orthogonalEdgeStyle;html=1;exitX=0.5;exitY=1;exitDx=0;exitDy=0;entryX=0.5;entryY=1;entryDx=0;entryDy=0;entryPerimeter=0;startArrow=classic;startFill=1;endArrow=classic;endFill=1;strokeWidth=3;curved=1;dashed=1;fillColor=#60a917;strokeColor=#2D7600;" edge="1" parent="1" source="RuM5QxJpjIQEG4IXcK9o-8" target="RuM5QxJpjIQEG4IXcK9o-18">
                    <mxGeometry relative="1" as="geometry">
                        <Array as="points">
                            <mxPoint x="90" y="410"/>
                            <mxPoint x="495" y="410"/>
                        </Array>
                    </mxGeometry>
                </mxCell>
                <mxCell id="RuM5QxJpjIQEG4IXcK9o-8" value="孫SEG" style="rounded=0;whiteSpace=wrap;html=1;fillColor=#60a917;fontColor=#ffffff;strokeColor=#2D7600;" vertex="1" parent="1">
                    <mxGeometry x="30" y="300" width="120" height="60" as="geometry"/>
                </mxCell>
                <mxCell id="RuM5QxJpjIQEG4IXcK9o-9" value="" style="rounded=0;whiteSpace=wrap;html=1;fillColor=#6d8764;fontColor=#ffffff;strokeColor=#3A5431;" vertex="1" parent="1">
                    <mxGeometry x="204" y="310" width="120" height="60" as="geometry"/>
                </mxCell>
                <mxCell id="RuM5QxJpjIQEG4IXcK9o-10" style="edgeStyle=elbowEdgeStyle;rounded=0;elbow=vertical;html=1;exitX=0.5;exitY=0;exitDx=0;exitDy=0;endArrow=none;endFill=0;" edge="1" source="RuM5QxJpjIQEG4IXcK9o-11" parent="1">
                    <mxGeometry relative="1" as="geometry">
                        <mxPoint x="170" y="240" as="targetPoint"/>
                    </mxGeometry>
                </mxCell>
                <mxCell id="RuM5QxJpjIQEG4IXcK9o-11" value="孫SEG" style="rounded=0;whiteSpace=wrap;html=1;fillColor=#6d8764;fontColor=#ffffff;strokeColor=#3A5431;" vertex="1" parent="1">
                    <mxGeometry x="190" y="300" width="120" height="60" as="geometry"/>
                </mxCell>
                <mxCell id="RuM5QxJpjIQEG4IXcK9o-12" value="" style="swimlane;startSize=0;" vertex="1" parent="1">
                    <mxGeometry x="10" y="40" width="400" height="410" as="geometry"/>
                </mxCell>
                <mxCell id="RuM5QxJpjIQEG4IXcK9o-13" value="regacy_db" style="text;html=1;strokeColor=none;fillColor=none;align=center;verticalAlign=middle;whiteSpace=wrap;rounded=0;" vertex="1" parent="1">
                    <mxGeometry x="10" y="10" width="60" height="30" as="geometry"/>
                </mxCell>
                <mxCell id="RuM5QxJpjIQEG4IXcK9o-14" value="r" style="swimlane;startSize=0;" vertex="1" parent="1">
                    <mxGeometry x="420" y="40" width="400" height="410" as="geometry"/>
                </mxCell>
                <mxCell id="RuM5QxJpjIQEG4IXcK9o-23" style="edgeStyle=orthogonalEdgeStyle;rounded=0;html=1;exitX=0.5;exitY=1;exitDx=0;exitDy=0;exitPerimeter=0;entryX=0.5;entryY=0;entryDx=0;entryDy=0;entryPerimeter=0;startArrow=none;startFill=0;endArrow=none;endFill=0;strokeWidth=1;" edge="1" parent="RuM5QxJpjIQEG4IXcK9o-14" source="RuM5QxJpjIQEG4IXcK9o-15" target="RuM5QxJpjIQEG4IXcK9o-16">
                    <mxGeometry relative="1" as="geometry"/>
                </mxCell>
                <mxCell id="RuM5QxJpjIQEG4IXcK9o-15" value="root_tbl" style="shape=cylinder3;whiteSpace=wrap;html=1;boundedLbl=1;backgroundOutline=1;size=15;fillColor=#d80073;fontColor=#ffffff;strokeColor=#A50040;" vertex="1" parent="RuM5QxJpjIQEG4IXcK9o-14">
                    <mxGeometry x="160" y="20" width="110" height="70" as="geometry"/>
                </mxCell>
                <mxCell id="RuM5QxJpjIQEG4IXcK9o-21" style="edgeStyle=orthogonalEdgeStyle;rounded=0;html=1;exitX=0.5;exitY=1;exitDx=0;exitDy=0;exitPerimeter=0;entryX=0.5;entryY=0;entryDx=0;entryDy=0;entryPerimeter=0;startArrow=none;startFill=0;endArrow=none;endFill=0;strokeWidth=1;" edge="1" parent="RuM5QxJpjIQEG4IXcK9o-14" source="RuM5QxJpjIQEG4IXcK9o-16" target="RuM5QxJpjIQEG4IXcK9o-19">
                    <mxGeometry relative="1" as="geometry"/>
                </mxCell>
                <mxCell id="RuM5QxJpjIQEG4IXcK9o-25" style="edgeStyle=orthogonalEdgeStyle;rounded=0;html=1;exitX=0.5;exitY=1;exitDx=0;exitDy=0;exitPerimeter=0;entryX=0.5;entryY=0;entryDx=0;entryDy=0;entryPerimeter=0;startArrow=none;startFill=0;endArrow=none;endFill=0;strokeWidth=1;" edge="1" parent="RuM5QxJpjIQEG4IXcK9o-14" source="RuM5QxJpjIQEG4IXcK9o-16" target="RuM5QxJpjIQEG4IXcK9o-18">
                    <mxGeometry relative="1" as="geometry"/>
                </mxCell>
                <mxCell id="RuM5QxJpjIQEG4IXcK9o-16" value="子SEG_tbl" style="shape=cylinder3;whiteSpace=wrap;html=1;boundedLbl=1;backgroundOutline=1;size=15;fillColor=#008a00;fontColor=#ffffff;strokeColor=#005700;" vertex="1" parent="RuM5QxJpjIQEG4IXcK9o-14">
                    <mxGeometry x="89" y="130" width="110" height="70" as="geometry"/>
                </mxCell>
                <mxCell id="RuM5QxJpjIQEG4IXcK9o-18" value="孫SEG_tbl" style="shape=cylinder3;whiteSpace=wrap;html=1;boundedLbl=1;backgroundOutline=1;size=15;fillColor=#60a917;fontColor=#ffffff;strokeColor=#2D7600;" vertex="1" parent="RuM5QxJpjIQEG4IXcK9o-14">
                    <mxGeometry x="20" y="260" width="110" height="70" as="geometry"/>
                </mxCell>
                <mxCell id="RuM5QxJpjIQEG4IXcK9o-19" value="孫SEG_tbl" style="shape=cylinder3;whiteSpace=wrap;html=1;boundedLbl=1;backgroundOutline=1;size=15;fillColor=#6d8764;fontColor=#ffffff;strokeColor=#3A5431;" vertex="1" parent="RuM5QxJpjIQEG4IXcK9o-14">
                    <mxGeometry x="170" y="260" width="110" height="70" as="geometry"/>
                </mxCell>
                <mxCell id="RuM5QxJpjIQEG4IXcK9o-17" value="子SEG_tbl" style="shape=cylinder3;whiteSpace=wrap;html=1;boundedLbl=1;backgroundOutline=1;size=15;fillColor=#0050ef;fontColor=#ffffff;strokeColor=#001DBC;" vertex="1" parent="1">
                    <mxGeometry x="670" y="170" width="110" height="70" as="geometry"/>
                </mxCell>
                <mxCell id="RuM5QxJpjIQEG4IXcK9o-24" style="edgeStyle=orthogonalEdgeStyle;rounded=0;html=1;exitX=0.5;exitY=1;exitDx=0;exitDy=0;exitPerimeter=0;entryX=0.5;entryY=0;entryDx=0;entryDy=0;entryPerimeter=0;startArrow=none;startFill=0;endArrow=none;endFill=0;strokeWidth=1;" edge="1" parent="1" source="RuM5QxJpjIQEG4IXcK9o-15" target="RuM5QxJpjIQEG4IXcK9o-17">
                    <mxGeometry relative="1" as="geometry"/>
                </mxCell>
            </root>
        </mxGraphModel>
    </diagram>
    <diagram id="0b5ZVMndHLMoNuMyO8dd" name="Page-4">
        <mxGraphModel dx="680" dy="318" grid="1" gridSize="10" guides="1" tooltips="1" connect="1" arrows="1" fold="1" page="1" pageScale="1" pageWidth="827" pageHeight="1169" math="0" shadow="0">
            <root>
                <mxCell id="0"/>
                <mxCell id="1" parent="0"/>
                <mxCell id="9jT4p7Thh5xcex_m1rUM-7" value="db_helper.dart" style="rounded=0;whiteSpace=wrap;html=1;align=left;verticalAlign=top;" vertex="1" parent="1">
                    <mxGeometry x="624" y="70" width="130" height="240" as="geometry"/>
                </mxCell>
                <mxCell id="9jT4p7Thh5xcex_m1rUM-1" value="main.dart&lt;br&gt;&lt;br&gt;&lt;span style=&quot;white-space: pre;&quot;&gt;&#9;&lt;/span&gt;" style="rounded=0;whiteSpace=wrap;html=1;align=left;verticalAlign=top;" vertex="1" parent="1">
                    <mxGeometry x="40" y="40" width="110" height="160" as="geometry"/>
                </mxCell>
                <mxCell id="9jT4p7Thh5xcex_m1rUM-2" value="cat_list.dart&lt;br&gt;&lt;br&gt;&lt;span style=&quot;white-space: pre;&quot;&gt;&#9;&lt;/span&gt;" style="rounded=0;whiteSpace=wrap;html=1;align=left;verticalAlign=top;" vertex="1" parent="1">
                    <mxGeometry x="180" y="60" width="110" height="140" as="geometry"/>
                </mxCell>
                <mxCell id="9jT4p7Thh5xcex_m1rUM-5" style="edgeStyle=orthogonalEdgeStyle;rounded=0;html=1;exitX=1;exitY=0.5;exitDx=0;exitDy=0;entryX=-0.035;entryY=0.18;entryDx=0;entryDy=0;entryPerimeter=0;startArrow=none;startFill=0;endArrow=classic;endFill=1;strokeWidth=1;" edge="1" parent="1" source="9jT4p7Thh5xcex_m1rUM-4" target="9jT4p7Thh5xcex_m1rUM-2">
                    <mxGeometry relative="1" as="geometry"/>
                </mxCell>
                <mxCell id="9jT4p7Thh5xcex_m1rUM-4" value="&lt;span style=&quot;text-align: left;&quot;&gt;cat_list表示&lt;/span&gt;" style="text;html=1;strokeColor=none;fillColor=none;align=center;verticalAlign=middle;whiteSpace=wrap;rounded=0;" vertex="1" parent="1">
                    <mxGeometry x="60" y="70" width="70" height="30" as="geometry"/>
                </mxCell>
                <mxCell id="9jT4p7Thh5xcex_m1rUM-9" style="edgeStyle=orthogonalEdgeStyle;rounded=0;html=1;startArrow=none;startFill=0;endArrow=classic;endFill=1;strokeWidth=1;" edge="1" parent="1" source="9jT4p7Thh5xcex_m1rUM-6" target="9jT4p7Thh5xcex_m1rUM-8">
                    <mxGeometry relative="1" as="geometry"/>
                </mxCell>
                <mxCell id="9jT4p7Thh5xcex_m1rUM-6" value="catsテーブル全件取得" style="text;html=1;strokeColor=none;fillColor=none;align=center;verticalAlign=middle;whiteSpace=wrap;rounded=0;" vertex="1" parent="1">
                    <mxGeometry x="190" y="90" width="80" height="30" as="geometry"/>
                </mxCell>
                <mxCell id="9jT4p7Thh5xcex_m1rUM-8" value="catsテーブル&lt;br&gt;select All" style="text;html=1;strokeColor=none;fillColor=none;align=center;verticalAlign=middle;whiteSpace=wrap;rounded=0;" vertex="1" parent="1">
                    <mxGeometry x="644" y="100" width="90" height="30" as="geometry"/>
                </mxCell>
                <mxCell id="9jT4p7Thh5xcex_m1rUM-21" style="edgeStyle=orthogonalEdgeStyle;rounded=0;html=1;entryX=-0.028;entryY=0.093;entryDx=0;entryDy=0;entryPerimeter=0;startArrow=none;startFill=0;endArrow=classic;endFill=1;strokeWidth=1;" edge="1" parent="1" source="9jT4p7Thh5xcex_m1rUM-10" target="9jT4p7Thh5xcex_m1rUM-11">
                    <mxGeometry relative="1" as="geometry"/>
                </mxCell>
                <mxCell id="9jT4p7Thh5xcex_m1rUM-10" value="cat_detail表示" style="text;html=1;strokeColor=none;fillColor=none;align=center;verticalAlign=middle;whiteSpace=wrap;rounded=0;" vertex="1" parent="1">
                    <mxGeometry x="190" y="130" width="90" height="30" as="geometry"/>
                </mxCell>
                <mxCell id="9jT4p7Thh5xcex_m1rUM-11" value="cat_detail.dart" style="rounded=0;whiteSpace=wrap;html=1;align=left;verticalAlign=top;" vertex="1" parent="1">
                    <mxGeometry x="320" y="133" width="130" height="120" as="geometry"/>
                </mxCell>
                <mxCell id="9jT4p7Thh5xcex_m1rUM-12" value="catsテーブル&lt;br&gt;select(1件)" style="text;html=1;strokeColor=none;fillColor=none;align=center;verticalAlign=middle;whiteSpace=wrap;rounded=0;" vertex="1" parent="1">
                    <mxGeometry x="649" y="148" width="80" height="30" as="geometry"/>
                </mxCell>
                <mxCell id="9jT4p7Thh5xcex_m1rUM-14" style="edgeStyle=orthogonalEdgeStyle;rounded=0;html=1;entryX=0;entryY=0.5;entryDx=0;entryDy=0;startArrow=none;startFill=0;endArrow=classic;endFill=1;strokeWidth=1;" edge="1" parent="1" source="9jT4p7Thh5xcex_m1rUM-13" target="9jT4p7Thh5xcex_m1rUM-12">
                    <mxGeometry relative="1" as="geometry"/>
                </mxCell>
                <mxCell id="9jT4p7Thh5xcex_m1rUM-13" value="catsテーブル明細表示" style="text;html=1;strokeColor=none;fillColor=none;align=center;verticalAlign=middle;whiteSpace=wrap;rounded=0;" vertex="1" parent="1">
                    <mxGeometry x="330" y="163" width="80" height="30" as="geometry"/>
                </mxCell>
                <mxCell id="9jT4p7Thh5xcex_m1rUM-16" value="catsテーブル&lt;br&gt;update" style="text;html=1;strokeColor=none;fillColor=none;align=center;verticalAlign=middle;whiteSpace=wrap;rounded=0;" vertex="1" parent="1">
                    <mxGeometry x="649" y="198" width="80" height="30" as="geometry"/>
                </mxCell>
                <mxCell id="9jT4p7Thh5xcex_m1rUM-19" value="catsテーブル&lt;br&gt;delete" style="text;html=1;strokeColor=none;fillColor=none;align=center;verticalAlign=middle;whiteSpace=wrap;rounded=0;" vertex="1" parent="1">
                    <mxGeometry x="649" y="248" width="80" height="30" as="geometry"/>
                </mxCell>
                <mxCell id="9jT4p7Thh5xcex_m1rUM-22" value="cat_detail_edit.dart" style="rounded=0;whiteSpace=wrap;html=1;align=left;verticalAlign=top;" vertex="1" parent="1">
                    <mxGeometry x="480" y="200" width="120" height="110" as="geometry"/>
                </mxCell>
                <mxCell id="9jT4p7Thh5xcex_m1rUM-28" style="edgeStyle=orthogonalEdgeStyle;rounded=0;html=1;entryX=0;entryY=0.5;entryDx=0;entryDy=0;startArrow=none;startFill=0;endArrow=classic;endFill=1;strokeWidth=1;" edge="1" parent="1" source="9jT4p7Thh5xcex_m1rUM-24" target="9jT4p7Thh5xcex_m1rUM-16">
                    <mxGeometry relative="1" as="geometry"/>
                </mxCell>
                <mxCell id="9jT4p7Thh5xcex_m1rUM-24" value="catsテーブル更新" style="text;html=1;strokeColor=none;fillColor=none;align=center;verticalAlign=middle;whiteSpace=wrap;rounded=0;" vertex="1" parent="1">
                    <mxGeometry x="490" y="230" width="80" height="30" as="geometry"/>
                </mxCell>
                <mxCell id="9jT4p7Thh5xcex_m1rUM-29" style="edgeStyle=orthogonalEdgeStyle;rounded=0;html=1;entryX=0;entryY=0.5;entryDx=0;entryDy=0;startArrow=none;startFill=0;endArrow=classic;endFill=1;strokeWidth=1;" edge="1" parent="1" source="9jT4p7Thh5xcex_m1rUM-25" target="9jT4p7Thh5xcex_m1rUM-19">
                    <mxGeometry relative="1" as="geometry"/>
                </mxCell>
                <mxCell id="9jT4p7Thh5xcex_m1rUM-25" value="catsテーブル削除" style="text;html=1;strokeColor=none;fillColor=none;align=center;verticalAlign=middle;whiteSpace=wrap;rounded=0;" vertex="1" parent="1">
                    <mxGeometry x="494" y="270" width="80" height="30" as="geometry"/>
                </mxCell>
                <mxCell id="9jT4p7Thh5xcex_m1rUM-27" style="edgeStyle=orthogonalEdgeStyle;rounded=0;html=1;exitX=1;exitY=0.5;exitDx=0;exitDy=0;entryX=0;entryY=0.182;entryDx=0;entryDy=0;entryPerimeter=0;startArrow=none;startFill=0;endArrow=classic;endFill=1;strokeWidth=1;" edge="1" parent="1" source="9jT4p7Thh5xcex_m1rUM-26" target="9jT4p7Thh5xcex_m1rUM-22">
                    <mxGeometry relative="1" as="geometry"/>
                </mxCell>
                <mxCell id="9jT4p7Thh5xcex_m1rUM-26" value="変更ボタンタップ" style="text;html=1;strokeColor=none;fillColor=none;align=center;verticalAlign=middle;whiteSpace=wrap;rounded=0;" vertex="1" parent="1">
                    <mxGeometry x="330" y="203" width="70" height="30" as="geometry"/>
                </mxCell>
            </root>
        </mxGraphModel>
    </diagram>
</mxfile>